<svg width="24" height="24" viewBox="0 0 24 24" fill="none" xmlns="http://www.w3.org/2000/svg">
<path d="M12.017 18.7548V23.8895L6.83594 19.9766V14.8574L12.017 18.7548Z" fill="url(#paint0_linear_916_91571)"/>
<path d="M12.0156 18.7548V23.8895L17.1812 19.9766V14.8574L12.0156 18.7548Z" fill="url(#paint1_linear_916_91571)"/>
<path d="M12.0164 10.0475V15.6616L4.5 10.0011V4.38696L12.0164 10.0475Z" fill="url(#paint2_linear_916_91571)"/>
<path d="M4.50056 4.38702V10.0011L0 6.59864L0.00440871 5.00268C0.0089628 3.3541 1.89408 2.41868 3.20968 3.41218L4.50056 4.38702Z" fill="url(#paint3_linear_916_91571)"/>
<path d="M4.50056 10.0011V22.5594L0 19.126V6.59863L4.50056 10.0011Z" fill="url(#paint4_linear_916_91571)"/>
<path d="M12.0156 10.0475V15.6616L19.5166 10.0011V4.38696L12.0156 10.0475Z" fill="url(#paint5_linear_916_91571)"/>
<path d="M19.5156 4.38702V10.0011L24.0007 6.59864L23.9963 5.01102C23.9918 3.3609 22.1036 2.42591 20.7884 3.42252L19.5156 4.38702Z" fill="url(#paint6_linear_916_91571)"/>
<path d="M19.5156 10.0011V22.5594L24.0007 19.126V6.59863L19.5156 10.0011Z" fill="url(#paint7_linear_916_91571)"/>
<defs>
<linearGradient id="paint0_linear_916_91571" x1="9.42647" y1="14.8574" x2="9.42647" y2="23.8895" gradientUnits="userSpaceOnUse">
<stop stop-color="#0D51FC"/>
<stop offset="1" stop-color="#0DEEFC"/>
</linearGradient>
<linearGradient id="paint1_linear_916_91571" x1="14.5984" y1="14.8574" x2="14.5984" y2="23.8895" gradientUnits="userSpaceOnUse">
<stop stop-color="#0D51FC"/>
<stop offset="1" stop-color="#0DEEFC"/>
</linearGradient>
<linearGradient id="paint2_linear_916_91571" x1="8.2582" y1="4.38696" x2="8.2582" y2="15.6616" gradientUnits="userSpaceOnUse">
<stop stop-color="#0D51FC"/>
<stop offset="1" stop-color="#0DEEFC"/>
</linearGradient>
<linearGradient id="paint3_linear_916_91571" x1="2.25028" y1="1" x2="2.25028" y2="10.0011" gradientUnits="userSpaceOnUse">
<stop stop-color="#0D51FC"/>
<stop offset="1" stop-color="#0DEEFC"/>
</linearGradient>
<linearGradient id="paint4_linear_916_91571" x1="2.25028" y1="6.59863" x2="2.25028" y2="22.5594" gradientUnits="userSpaceOnUse">
<stop stop-color="#0D51FC"/>
<stop offset="1" stop-color="#0DEEFC"/>
</linearGradient>
<linearGradient id="paint5_linear_916_91571" x1="15.7661" y1="4.38696" x2="15.7661" y2="15.6616" gradientUnits="userSpaceOnUse">
<stop stop-color="#0D51FC"/>
<stop offset="1" stop-color="#0DEEFC"/>
</linearGradient>
<linearGradient id="paint6_linear_916_91571" x1="21.7582" y1="1" x2="21.7582" y2="10.0011" gradientUnits="userSpaceOnUse">
<stop stop-color="#0D51FC"/>
<stop offset="1" stop-color="#0DEEFC"/>
</linearGradient>
<linearGradient id="paint7_linear_916_91571" x1="21.7582" y1="6.59863" x2="21.7582" y2="22.5594" gradientUnits="userSpaceOnUse">
<stop stop-color="#0D51FC"/>
<stop offset="1" stop-color="#0DEEFC"/>
</linearGradient>
</defs>
</svg>
